# This file uses centimeters as units for non-parametric coordinates.

v -0.213536 0.000000 -0.456773
v -0.390151 0.000000 -0.334565
v -0.499304 0.000000 -0.154509
v -0.522124 0.000000 0.052264
v -0.454664 0.000000 0.250000
v -0.308588 0.000000 0.404508
v -0.109154 0.000000 0.489074
v 0.109154 0.000000 0.489074
v 0.308588 0.000000 0.404508
v 0.454664 0.000000 0.250000
v 0.522124 0.000000 0.052264
v 0.499304 0.000000 -0.154508
v 0.390151 0.000000 -0.334565
v 0.213536 0.000000 -0.456773
v 0.000000 -0.000000 -0.500000
v -0.213536 1.050000 -0.456773
v -0.390151 1.050000 -0.334565
v -0.499304 1.050000 -0.154509
v -0.522124 1.050000 0.052264
v -0.454664 1.050000 0.250000
v -0.308588 1.050000 0.404508
v -0.109154 1.050000 0.489074
v 0.109154 1.050000 0.489074
v 0.308588 1.050000 0.404508
v 0.454664 1.050000 0.250000
v 0.522124 1.050000 0.052264
v 0.499304 1.050000 -0.154508
v 0.390151 1.050000 -0.334565
v 0.213536 1.050000 -0.456773
v 0.000000 1.050000 -0.500000
v 0.000000 1.050000 0.000000
vt 0.375000 0.312500
vt 0.391667 0.312500
vt 0.375000 0.688440
vt 0.391667 0.688440
vt 0.408333 0.312500
vt 0.408333 0.688440
vt 0.425000 0.312500
vt 0.425000 0.688440
vt 0.441667 0.312500
vt 0.441667 0.688440
vt 0.458333 0.312500
vt 0.458333 0.688440
vt 0.475000 0.312500
vt 0.475000 0.688440
vt 0.491667 0.312500
vt 0.491667 0.688440
vt 0.508333 0.312500
vt 0.508333 0.688440
vt 0.525000 0.312500
vt 0.525000 0.688440
vt 0.541667 0.312500
vt 0.541667 0.688440
vt 0.558333 0.312500
vt 0.558333 0.688440
vt 0.575000 0.312500
vt 0.575000 0.688440
vt 0.591667 0.312500
vt 0.591667 0.688440
vt 0.608333 0.312500
vt 0.608333 0.688440
vt 0.625000 0.312500
vt 0.625000 0.688440
vt 0.642741 0.907303
vt 0.604552 0.959866
vt 0.500000 0.837500
vt 0.548284 0.992353
vt 0.483667 0.999144
vt 0.421875 0.979066
vt 0.373591 0.935591
vt 0.347164 0.876236
vt 0.347164 0.811264
vt 0.373591 0.751909
vt 0.421875 0.708434
vt 0.483667 0.688356
vt 0.548284 0.695147
vt 0.604552 0.727634
vt 0.642741 0.780197
vt 0.656250 0.843750
vn -0.390382 -0.000000 -0.920653
vn -0.726658 -0.000000 -0.687000
vn -0.390382 -0.000000 -0.920653
vn -0.390382 -0.000000 -0.920653
vn -0.726658 -0.000000 -0.687000
vn -0.726658 -0.000000 -0.687000
vn -0.726658 -0.000000 -0.687000
vn -0.946436 -0.000000 -0.322891
vn -0.726658 -0.000000 -0.687000
vn -0.726658 -0.000000 -0.687000
vn -0.946436 -0.000000 -0.322891
vn -0.946436 -0.000000 -0.322891
vn -0.946436 -0.000000 -0.322891
vn -0.993966 0.000000 0.109693
vn -0.946436 -0.000000 -0.322891
vn -0.946436 -0.000000 -0.322891
vn -0.993966 0.000000 0.109693
vn -0.993966 0.000000 0.109693
vn -0.993966 0.000000 0.109693
vn -0.855138 0.000000 0.518400
vn -0.993966 0.000000 0.109693
vn -0.993966 0.000000 0.109693
vn -0.855138 0.000000 0.518400
vn -0.855138 0.000000 0.518400
vn -0.855138 0.000000 0.518400
vn -0.569008 0.000000 0.822332
vn -0.855138 0.000000 0.518400
vn -0.855138 0.000000 0.518400
vn -0.569008 0.000000 0.822332
vn -0.569008 0.000000 0.822332
vn -0.569008 0.000000 0.822332
vn -0.198410 0.000000 0.980119
vn -0.569008 0.000000 0.822332
vn -0.569008 0.000000 0.822332
vn -0.198410 0.000000 0.980119
vn -0.198410 0.000000 0.980119
vn -0.198410 0.000000 0.980119
vn 0.198410 0.000000 0.980119
vn -0.198410 0.000000 0.980119
vn -0.198410 0.000000 0.980119
vn 0.198410 0.000000 0.980119
vn 0.198410 0.000000 0.980119
vn 0.198410 0.000000 0.980119
vn 0.569008 0.000000 0.822332
vn 0.198410 0.000000 0.980119
vn 0.198410 0.000000 0.980119
vn 0.569008 0.000000 0.822332
vn 0.569008 0.000000 0.822332
vn 0.569008 0.000000 0.822332
vn 0.855138 0.000000 0.518400
vn 0.569008 0.000000 0.822332
vn 0.569008 0.000000 0.822332
vn 0.855138 0.000000 0.518400
vn 0.855138 0.000000 0.518400
vn 0.855138 0.000000 0.518400
vn 0.993965 0.000000 0.109694
vn 0.855138 0.000000 0.518400
vn 0.855138 0.000000 0.518400
vn 0.993965 0.000000 0.109694
vn 0.993965 0.000000 0.109694
vn 0.993965 0.000000 0.109694
vn 0.946436 -0.000000 -0.322891
vn 0.993965 0.000000 0.109694
vn 0.993965 0.000000 0.109694
vn 0.946436 -0.000000 -0.322891
vn 0.946436 -0.000000 -0.322891
vn 0.946436 -0.000000 -0.322891
vn 0.726658 -0.000000 -0.687000
vn 0.946436 -0.000000 -0.322891
vn 0.946436 -0.000000 -0.322891
vn 0.726658 -0.000000 -0.687000
vn 0.726658 -0.000000 -0.687000
vn 0.726658 -0.000000 -0.687000
vn 0.390382 -0.000000 -0.920653
vn 0.726658 -0.000000 -0.687000
vn 0.726658 -0.000000 -0.687000
vn 0.390382 -0.000000 -0.920653
vn 0.390382 -0.000000 -0.920653
vn 0.390382 -0.000000 -0.920653
vn 0.000000 -0.000000 -1.000000
vn 0.390382 -0.000000 -0.920653
vn 0.390382 -0.000000 -0.920653
vn 0.000000 -0.000000 -1.000000
vn 0.000000 -0.000000 -1.000000
vn 0.000000 -0.000000 -1.000000
vn -0.390382 -0.000000 -0.920653
vn 0.000000 -0.000000 -1.000000
vn 0.000000 -0.000000 -1.000000
vn -0.390382 -0.000000 -0.920653
vn -0.390382 -0.000000 -0.920653
vn 0.000000 1.000000 -0.000000
vn 0.000000 1.000000 -0.000000
vn 0.000000 1.000000 -0.000000
vn 0.000000 1.000000 -0.000000
vn 0.000000 1.000000 -0.000000
vn 0.000000 1.000000 -0.000000
vn 0.000000 1.000000 -0.000000
vn 0.000000 1.000000 -0.000000
vn 0.000000 1.000000 -0.000000
vn 0.000000 1.000000 -0.000000
vn 0.000000 1.000000 -0.000000
vn 0.000000 1.000000 -0.000000
vn 0.000000 1.000000 -0.000000
vn 0.000000 1.000000 -0.000000
vn 0.000000 1.000000 -0.000000
vn 0.000000 1.000000 -0.000000
vn 0.000000 1.000000 -0.000000
vn 0.000000 1.000000 -0.000000
vn 0.000000 1.000000 -0.000000
vn 0.000000 1.000000 -0.000000
vn 0.000000 1.000000 -0.000000
vn 0.000000 1.000000 -0.000000
vn 0.000000 1.000000 -0.000000
vn 0.000000 1.000000 -0.000000
vn 0.000000 1.000000 -0.000000
vn 0.000000 1.000000 -0.000000
vn 0.000000 1.000000 -0.000000
vn 0.000000 1.000000 -0.000000
vn 0.000000 1.000000 -0.000000
vn 0.000000 1.000000 -0.000000
vn 0.000000 1.000000 -0.000000
vn 0.000000 1.000000 -0.000000
vn 0.000000 1.000000 -0.000000
vn 0.000000 1.000000 -0.000000
vn 0.000000 1.000000 -0.000000
vn 0.000000 1.000000 -0.000000
vn 0.000000 1.000000 -0.000000
vn 0.000000 1.000000 -0.000000
vn 0.000000 1.000000 -0.000000
vn 0.000000 1.000000 -0.000000
vn 0.000000 1.000000 -0.000000
vn 0.000000 1.000000 -0.000000
vn 0.000000 1.000000 -0.000000
vn 0.000000 1.000000 -0.000000
vn 0.000000 1.000000 -0.000000
s off
f 1/1/1 2/2/2 16/3/3
f 16/3/4 2/2/5 17/4/6
f 2/2/7 3/5/8 17/4/9
f 17/4/10 3/5/11 18/6/12
f 3/5/13 4/7/14 18/6/15
f 18/6/16 4/7/17 19/8/18
f 4/7/19 5/9/20 19/8/21
f 19/8/22 5/9/23 20/10/24
f 5/9/25 6/11/26 20/10/27
f 20/10/28 6/11/29 21/12/30
f 6/11/31 7/13/32 21/12/33
f 21/12/34 7/13/35 22/14/36
f 7/13/37 8/15/38 22/14/39
f 22/14/40 8/15/41 23/16/42
f 8/15/43 9/17/44 23/16/45
f 23/16/46 9/17/47 24/18/48
f 9/17/49 10/19/50 24/18/51
f 24/18/52 10/19/53 25/20/54
f 10/19/55 11/21/56 25/20/57
f 25/20/58 11/21/59 26/22/60
f 11/21/61 12/23/62 26/22/63
f 26/22/64 12/23/65 27/24/66
f 12/23/67 13/25/68 27/24/69
f 27/24/70 13/25/71 28/26/72
f 13/25/73 14/27/74 28/26/75
f 28/26/76 14/27/77 29/28/78
f 14/27/79 15/29/80 29/28/81
f 29/28/82 15/29/83 30/30/84
f 15/29/85 1/31/86 30/30/87
f 30/30/88 1/31/89 16/32/90
f 16/33/91 17/34/92 31/35/93
f 17/34/94 18/36/95 31/35/96
f 18/36/97 19/37/98 31/35/99
f 19/37/100 20/38/101 31/35/102
f 20/38/103 21/39/104 31/35/105
f 21/39/106 22/40/107 31/35/108
f 22/40/109 23/41/110 31/35/111
f 23/41/112 24/42/113 31/35/114
f 24/42/115 25/43/116 31/35/117
f 25/43/118 26/44/119 31/35/120
f 26/44/121 27/45/122 31/35/123
f 27/45/124 28/46/125 31/35/126
f 28/46/127 29/47/128 31/35/129
f 29/47/130 30/48/131 31/35/132
f 30/48/133 16/33/134 31/35/135
