# This file uses centimeters as units for non-parametric coordinates.

v 0.235981 0.000000 -0.726274
v -0.617805 0.000000 -0.448862
v -0.617805 0.000000 0.448862
v 0.235981 0.000000 0.726274
v 0.763649 0.000000 0.000000
v 0.235981 1.000000 -0.726274
v -0.617805 1.000000 -0.448862
v -0.617805 1.000000 0.448862
v 0.235981 1.000000 0.726274
v 0.763649 1.000000 0.000000
v 0.235981 2.000000 -0.726274
v -0.617805 2.000000 -0.448862
v -0.617805 2.000000 0.448862
v 0.235981 2.000000 0.726274
v 0.763649 2.000000 0.000000
v 0.235981 3.000000 -0.726274
v -0.617805 3.000000 -0.448862
v -0.617805 3.000000 0.448862
v 0.235981 3.000000 0.726274
v 0.763649 3.000000 0.000000
vt 0.375000 0.312500
vt 0.425000 0.312500
vt 0.475000 0.312500
vt 0.525000 0.312500
vt 0.575000 0.312500
vt 0.625000 0.312500
vt 0.375000 0.437813
vt 0.425000 0.437813
vt 0.475000 0.437813
vt 0.525000 0.437813
vt 0.575000 0.437813
vt 0.625000 0.437813
vt 0.375000 0.563127
vt 0.425000 0.563127
vt 0.475000 0.563127
vt 0.525000 0.563127
vt 0.575000 0.563127
vt 0.625000 0.563127
vt 0.375000 0.688440
vt 0.425000 0.688440
vt 0.475000 0.688440
vt 0.525000 0.688440
vt 0.575000 0.688440
vt 0.625000 0.688440
vt 0.548284 0.695147
vt 0.373591 0.751909
vt 0.373591 0.935591
vt 0.548284 0.992353
vt 0.656250 0.843750
vn -0.309017 0.000000 -0.951057
vn -0.309017 0.000000 -0.951057
vn -0.309017 0.000000 -0.951057
vn -0.309017 0.000000 -0.951057
vn -1.000000 0.000000 -0.000000
vn -1.000000 0.000000 -0.000000
vn -1.000000 0.000000 -0.000000
vn -1.000000 0.000000 -0.000000
vn -0.309017 0.000000 0.951057
vn -0.309017 0.000000 0.951057
vn -0.309017 0.000000 0.951057
vn -0.309017 0.000000 0.951057
vn 0.809017 0.000000 0.587785
vn 0.809017 0.000000 0.587785
vn 0.809017 0.000000 0.587785
vn 0.809017 0.000000 0.587785
vn 0.809017 0.000000 -0.587785
vn 0.809017 0.000000 -0.587785
vn 0.809017 0.000000 -0.587785
vn 0.809017 0.000000 -0.587785
vn -0.309017 0.000000 -0.951057
vn -0.309017 0.000000 -0.951057
vn -1.000000 0.000000 -0.000000
vn -1.000000 0.000000 -0.000000
vn -0.309017 0.000000 0.951057
vn -0.309017 0.000000 0.951057
vn 0.809017 0.000000 0.587785
vn 0.809017 0.000000 0.587785
vn 0.809017 0.000000 -0.587785
vn 0.809017 0.000000 -0.587785
vn -0.309017 0.000000 -0.951057
vn -0.309017 0.000000 -0.951057
vn -1.000000 0.000000 -0.000000
vn -1.000000 0.000000 -0.000000
vn -0.309017 0.000000 0.951057
vn -0.309017 0.000000 0.951057
vn 0.809017 0.000000 0.587785
vn 0.809017 0.000000 0.587785
vn 0.809017 0.000000 -0.587785
vn 0.809017 0.000000 -0.587785
vn 0.000000 1.000000 -0.000001
vn 0.000000 1.000000 -0.000000
vn 0.000000 1.000000 -0.000000
vn 0.000000 1.000000 0.000000
vn 0.000000 1.000000 0.000000
s 1
f 1/1/1 2/2/2 6/7/3
f 6/7/3 2/2/2 7/8/4
s 2
f 2/2/5 3/3/6 7/8/7
f 7/8/7 3/3/6 8/9/8
s 3
f 3/3/9 4/4/10 8/9/11
f 8/9/11 4/4/10 9/10/12
s 4
f 4/4/13 5/5/14 9/10/15
f 9/10/15 5/5/14 10/11/16
s 5
f 5/5/17 1/6/18 10/11/19
f 10/11/19 1/6/18 6/12/20
s 1
f 6/7/3 7/8/4 11/13/21
f 11/13/21 7/8/4 12/14/22
s 2
f 7/8/7 8/9/8 12/14/23
f 12/14/23 8/9/8 13/15/24
s 3
f 8/9/11 9/10/12 13/15/25
f 13/15/25 9/10/12 14/16/26
s 4
f 9/10/15 10/11/16 14/16/27
f 14/16/27 10/11/16 15/17/28
s 5
f 10/11/19 6/12/20 15/17/29
f 15/17/29 6/12/20 11/18/30
s 1
f 11/13/21 12/14/22 16/19/31
f 16/19/31 12/14/22 17/20/32
s 2
f 12/14/23 13/15/24 17/20/33
f 17/20/33 13/15/24 18/21/34
s 3
f 13/15/25 14/16/26 18/21/35
f 18/21/35 14/16/26 19/22/36
s 4
f 14/16/27 15/17/28 19/22/37
f 19/22/37 15/17/28 20/23/38
s 5
f 15/17/29 11/18/30 20/23/39
f 20/23/39 11/18/30 16/24/40
s 6
f 16/28/41 17/27/42 20/29/43
f 17/27/42 18/26/44 20/29/43
f 18/26/44 19/25/45 20/29/43
